<svg width="221" height="189" viewBox="0 0 221 189" fill="none" xmlns="http://www.w3.org/2000/svg">
<path d="M55.294 0.981812C40.172 0.981812 26.6998 7.30552 16.5269 17.2035C6.62889 27.1015 0.305176 40.5737 0.305176 55.9706C0.305176 71.0925 6.62889 84.5648 16.5269 94.7377L110.283 188.494L204.039 94.7377C213.937 84.8397 220.26 71.3675 220.26 55.9706C220.26 40.8487 213.937 27.3764 204.039 17.2035C194.141 7.30552 180.668 0.981812 165.272 0.981812C150.15 0.981812 136.677 7.30552 126.504 17.2035C116.606 27.1015 110.283 40.5737 110.283 55.9706C110.283 40.8487 103.959 27.3764 94.0611 17.2035C84.1631 7.30552 70.6908 0.981812 55.294 0.981812Z" fill="white"/>
</svg>
